<?xml version="1.0" encoding="utf-8"?>
<!-- Generator: Adobe Illustrator 23.1.1, SVG Export Plug-In . SVG Version: 6.00 Build 0)  -->
<svg version="1.1" id="Layer_1" xmlns="http://www.w3.org/2000/svg" xmlns:xlink="http://www.w3.org/1999/xlink" x="0px" y="0px"
	 viewBox="0 0 300 300" style="enable-background:new 0 0 300 300;" xml:space="preserve">
<style type="text/css">
	.st0{fill:#FFFFFF;}
	.st1{fill:#FF7F50;}
</style>
<g id="Layer_2_1_">
	<g>
		<path class="st0" d="M66.5,150.5c0,31.1,17.1,58.3,42.1,73.1l84.8-145.8c-12.4-7.3-27-11.6-42.7-11.6
			C104.4,66.1,66.5,104,66.5,150.5z"/>
		<path d="M223.1,26.3L79.5,26.8L8,150.5l71.1,123.2l29.3-50.3c-25.2-14.6-42.1-41.8-42.1-73.1c0-46.6,37.7-84.3,84.3-84.3
			c15.6,0,30,4.1,42.5,11.4L223.1,26.3z"/>
		<path d="M236.3,150.4c0-31.5-17.1-58.9-42.3-73.6l-85.7,146.9c12.6,7.3,27.2,11.7,43,11.7C198.2,235.3,236.3,197.3,236.3,150.4z"
			/>
		<path class="st1" d="M78.9,273.7l143.7-0.5l71.5-123.6L223,26.4l-29.3,50.1c25.2,14.6,42.1,41.8,42.1,73.1
			c0,46.6-37.7,84.3-84.3,84.3c-15.6,0-30-4.1-42.5-11.4L78.9,273.7z"/>
	</g>
</g>
</svg>
