<?xml version="1.0" standalone="no"?>
<!DOCTYPE svg PUBLIC "-//W3C//DTD SVG 20010904//EN"
 "http://www.w3.org/TR/2001/REC-SVG-20010904/DTD/svg10.dtd">
<svg version="1.0" xmlns="http://www.w3.org/2000/svg"
 width="260.000000pt" height="260.000000pt" viewBox="0 0 260.000000 260.000000"
 preserveAspectRatio="xMidYMid meet">
<metadata>
Created by potrace 1.11, written by Peter Selinger 2001-2013
</metadata>
<g transform="translate(0.000000,260.000000) scale(0.100000,-0.100000)"
fill="#000000" stroke="none">
<path d="M542 1964 c-104 -28 -160 -72 -204 -162 -31 -62 -33 -74 -33 -167 0
-93 2 -105 32 -165 35 -71 87 -129 232 -260 114 -102 147 -146 161 -214 21
-103 -26 -167 -100 -136 -41 17 -68 73 -77 160 l-6 62 -46 -6 c-25 -3 -81 -11
-125 -17 l-78 -12 7 -66 c18 -165 70 -255 179 -311 67 -34 72 -35 185 -35 107
0 121 2 173 28 71 35 130 101 159 176 18 47 20 71 17 153 -4 84 -9 106 -37
162 -35 72 -122 170 -235 266 -130 110 -175 185 -160 265 13 73 71 104 118 63
22 -19 28 -35 34 -90 5 -37 11 -70 14 -74 4 -3 60 0 125 8 l118 13 -4 55 c-4
73 -34 167 -66 210 -71 97 -230 136 -383 94z"/>
<path d="M1245 1925 c-27 -19 -80 -51 -117 -70 l-68 -36 0 -100 c0 -115 -9
-110 108 -58 35 16 66 29 68 29 2 0 4 -234 4 -520 l0 -520 135 0 135 0 0 655
0 655 -107 -1 c-106 0 -109 -1 -158 -34z"/>
<path d="M1670 1860 l0 -100 175 0 c160 0 175 -1 175 -17 -1 -10 -63 -259
-139 -553 l-138 -535 130 -3 c71 -1 131 -1 133 1 2 2 67 252 144 557 133 526
140 558 140 652 l0 98 -310 0 -310 0 0 -100z"/>
</g>
</svg>
